<svg width="76" height="17" viewBox="0 0 76 17" fill="none" xmlns="http://www.w3.org/2000/svg">
<path d="M2.97461 16C2.30404 16 1.79297 15.9154 1.44141 15.7461C1.09635 15.5768 0.861979 15.3001 0.738281 14.916C0.621094 14.5319 0.5625 14.0208 0.5625 13.3828V4.61328C0.5625 3.96224 0.621094 3.44792 0.738281 3.07031C0.861979 2.6862 1.09635 2.41276 1.44141 2.25C1.79297 2.08073 2.30404 1.99609 2.97461 1.99609H5.97266C7.3724 1.99609 8.59635 2.20443 9.64453 2.62109C10.6992 3.03776 11.5195 3.74414 12.1055 4.74023C12.6914 5.72982 12.9844 7.09049 12.9844 8.82227C12.9844 10.554 12.6914 11.9473 12.1055 13.002C11.5195 14.0501 10.6992 14.8118 9.64453 15.2871C8.59635 15.7624 7.3724 16 5.97266 16H2.97461ZM4.83008 4.56445C4.40039 4.56445 4.10742 4.6556 3.95117 4.83789C3.79492 5.02018 3.7168 5.33268 3.7168 5.77539V12.2207C3.7168 12.6569 3.79492 12.9694 3.95117 13.1582C4.10742 13.347 4.40039 13.4414 4.83008 13.4414H5.2793C6.67253 13.4414 7.75 13.0996 8.51172 12.416C9.27995 11.7324 9.66406 10.5475 9.66406 8.86133C9.66406 7.73503 9.48828 6.86263 9.13672 6.24414C8.79167 5.61914 8.29036 5.18294 7.63281 4.93555C6.97526 4.68815 6.18424 4.56445 5.25977 4.56445H4.83008ZM21.9766 16.2441C20.3359 16.2441 19.0371 15.8079 18.0801 14.9355C17.123 14.0632 16.6445 12.7643 16.6445 11.0391C16.6445 9.26823 17.1393 7.94661 18.1289 7.07422C19.125 6.19531 20.4531 5.75586 22.1133 5.75586C23.7148 5.75586 24.9974 6.1888 25.9609 7.05469C26.9245 7.91406 27.4062 9.18359 27.4062 10.8633C27.4062 12.6146 26.9245 13.9492 25.9609 14.8672C24.9974 15.7852 23.6693 16.2441 21.9766 16.2441ZM22.0742 13.8809C22.7904 13.8809 23.3307 13.6595 23.6953 13.2168C24.0599 12.7676 24.2422 12.0026 24.2422 10.9219C24.2422 9.89323 24.0566 9.17057 23.6855 8.75391C23.321 8.33073 22.7773 8.11914 22.0547 8.11914C21.3581 8.11914 20.8079 8.34701 20.4043 8.80273C20.0072 9.25195 19.8086 9.98438 19.8086 11C19.8086 12.0612 19.9974 12.8066 20.375 13.2363C20.7591 13.666 21.3255 13.8809 22.0742 13.8809ZM36.3008 16.2441C34.6602 16.2441 33.3613 15.8079 32.4043 14.9355C31.4473 14.0632 30.9688 12.7643 30.9688 11.0391C30.9688 9.26823 31.4635 7.94661 32.4531 7.07422C33.4492 6.19531 34.7773 5.75586 36.4375 5.75586C38.0391 5.75586 39.3216 6.1888 40.2852 7.05469C41.2487 7.91406 41.7305 9.18359 41.7305 10.8633C41.7305 12.6146 41.2487 13.9492 40.2852 14.8672C39.3216 15.7852 37.9935 16.2441 36.3008 16.2441ZM36.3984 13.8809C37.1146 13.8809 37.6549 13.6595 38.0195 13.2168C38.3841 12.7676 38.5664 12.0026 38.5664 10.9219C38.5664 9.89323 38.3809 9.17057 38.0098 8.75391C37.6452 8.33073 37.1016 8.11914 36.3789 8.11914C35.6823 8.11914 35.1322 8.34701 34.7285 8.80273C34.3314 9.25195 34.1328 9.98438 34.1328 11C34.1328 12.0612 34.3216 12.8066 34.6992 13.2363C35.0833 13.666 35.6497 13.8809 36.3984 13.8809ZM47.1094 16.2051C46.9727 16.2637 46.875 16.293 46.8164 16.293C46.7578 16.293 46.696 16.2702 46.6309 16.2246C46.4811 16.1204 46.3086 15.8665 46.1133 15.4629C45.9245 15.0527 45.8301 14.4245 45.8301 13.5781V2.26953C45.8301 2.11328 45.8626 1.99284 45.9277 1.9082C46.2012 1.55013 46.6016 1.16276 47.1289 0.746094C47.2201 0.68099 47.3014 0.648438 47.373 0.648438C47.4577 0.648438 47.5391 0.68099 47.6172 0.746094C47.8971 0.960938 48.1315 1.16276 48.3203 1.35156C48.5156 1.54036 48.6816 1.72591 48.8184 1.9082C48.8835 1.99284 48.916 2.11328 48.916 2.26953V12.9824C48.916 13.4121 48.9518 13.7799 49.0234 14.0859C49.0951 14.3854 49.1797 14.6263 49.2773 14.8086C49.388 15.0234 49.3457 15.1764 49.1504 15.2676L47.1094 16.2051ZM58.4941 16.2441C57.3939 16.2441 56.4368 16.0684 55.623 15.7168C54.8092 15.3587 54.1777 14.8053 53.7285 14.0566C53.2793 13.3079 53.0547 12.3411 53.0547 11.1562C53.0547 9.37891 53.5104 8.03451 54.4219 7.12305C55.3333 6.21159 56.5443 5.75586 58.0547 5.75586C59.0378 5.75586 59.8678 5.93164 60.5449 6.2832C61.2285 6.63477 61.7461 7.11979 62.0977 7.73828C62.4557 8.35677 62.6348 9.06315 62.6348 9.85742C62.6348 10.6322 62.4362 11.1725 62.0391 11.4785C61.6419 11.7845 61.0625 11.9375 60.3008 11.9375H56.1113C56.1634 12.6081 56.4076 13.1191 56.8438 13.4707C57.2865 13.8223 57.8854 13.998 58.6406 13.998C59.2396 13.998 59.7181 13.9102 60.0762 13.7344C60.4408 13.5521 60.6947 13.4089 60.8379 13.3047C60.9616 13.2135 61.1016 13.1712 61.2578 13.1777C61.3815 13.1777 61.5573 13.2038 61.7852 13.2559C62.0195 13.3014 62.2507 13.3893 62.4785 13.5195C62.6413 13.6042 62.7227 13.7214 62.7227 13.8711C62.7227 13.9557 62.7064 14.0762 62.6738 14.2324C62.6543 14.3236 62.6217 14.457 62.5762 14.6328C62.5306 14.8021 62.472 14.9616 62.4004 15.1113C62.3613 15.1829 62.2995 15.2513 62.2148 15.3164C62.0846 15.4076 61.873 15.528 61.5801 15.6777C61.2936 15.8275 60.8997 15.9577 60.3984 16.0684C59.8971 16.1855 59.2624 16.2441 58.4941 16.2441ZM56.0918 9.93555H59.2754C59.6074 9.93555 59.7734 9.78255 59.7734 9.47656C59.7734 9.01432 59.627 8.62695 59.334 8.31445C59.0475 7.99544 58.6146 7.83594 58.0352 7.83594C57.4036 7.83594 56.9382 8.03776 56.6387 8.44141C56.3457 8.84505 56.1634 9.3431 56.0918 9.93555ZM71.6855 16.2441C70.5853 16.2441 69.6283 16.0684 68.8145 15.7168C68.0007 15.3587 67.3691 14.8053 66.9199 14.0566C66.4707 13.3079 66.2461 12.3411 66.2461 11.1562C66.2461 9.37891 66.7018 8.03451 67.6133 7.12305C68.5247 6.21159 69.7357 5.75586 71.2461 5.75586C72.2292 5.75586 73.0592 5.93164 73.7363 6.2832C74.4199 6.63477 74.9375 7.11979 75.2891 7.73828C75.6471 8.35677 75.8262 9.06315 75.8262 9.85742C75.8262 10.6322 75.6276 11.1725 75.2305 11.4785C74.8333 11.7845 74.2539 11.9375 73.4922 11.9375H69.3027C69.3548 12.6081 69.599 13.1191 70.0352 13.4707C70.4779 13.8223 71.0768 13.998 71.832 13.998C72.431 13.998 72.9095 13.9102 73.2676 13.7344C73.6322 13.5521 73.8861 13.4089 74.0293 13.3047C74.153 13.2135 74.293 13.1712 74.4492 13.1777C74.5729 13.1777 74.7487 13.2038 74.9766 13.2559C75.2109 13.3014 75.4421 13.3893 75.6699 13.5195C75.8327 13.6042 75.9141 13.7214 75.9141 13.8711C75.9141 13.9557 75.8978 14.0762 75.8652 14.2324C75.8457 14.3236 75.8132 14.457 75.7676 14.6328C75.722 14.8021 75.6634 14.9616 75.5918 15.1113C75.5527 15.1829 75.4909 15.2513 75.4062 15.3164C75.276 15.4076 75.0645 15.528 74.7715 15.6777C74.485 15.8275 74.0911 15.9577 73.5898 16.0684C73.0885 16.1855 72.4538 16.2441 71.6855 16.2441ZM69.2832 9.93555H72.4668C72.7988 9.93555 72.9648 9.78255 72.9648 9.47656C72.9648 9.01432 72.8184 8.62695 72.5254 8.31445C72.2389 7.99544 71.806 7.83594 71.2266 7.83594C70.5951 7.83594 70.1296 8.03776 69.8301 8.44141C69.5371 8.84505 69.3548 9.3431 69.2832 9.93555Z" fill="#808080"/>
</svg>
