<svg width="94" height="24" viewBox="0 0 94 24" fill="none" xmlns="http://www.w3.org/2000/svg">
<path d="M4.76953 21C3.96484 21 3.35156 20.8984 2.92969 20.6953C2.51562 20.4922 2.23438 20.1602 2.08594 19.6992C1.94531 19.2383 1.875 18.625 1.875 17.8594V7.33594C1.875 6.55469 1.94531 5.9375 2.08594 5.48438C2.23438 5.02344 2.51562 4.69531 2.92969 4.5C3.35156 4.29688 3.96484 4.19531 4.76953 4.19531H8.36719C10.0469 4.19531 11.5156 4.44531 12.7734 4.94531C14.0391 5.44531 15.0234 6.29297 15.7266 7.48828C16.4297 8.67578 16.7812 10.3086 16.7812 12.3867C16.7812 14.4648 16.4297 16.1367 15.7266 17.4023C15.0234 18.6602 14.0391 19.5742 12.7734 20.1445C11.5156 20.7148 10.0469 21 8.36719 21H4.76953ZM6.99609 7.27734C6.48047 7.27734 6.12891 7.38672 5.94141 7.60547C5.75391 7.82422 5.66016 8.19922 5.66016 8.73047V16.4648C5.66016 16.9883 5.75391 17.3633 5.94141 17.5898C6.12891 17.8164 6.48047 17.9297 6.99609 17.9297H7.53516C9.20703 17.9297 10.5 17.5195 11.4141 16.6992C12.3359 15.8789 12.7969 14.457 12.7969 12.4336C12.7969 11.082 12.5859 10.0352 12.1641 9.29297C11.75 8.54297 11.1484 8.01953 10.3594 7.72266C9.57031 7.42578 8.62109 7.27734 7.51172 7.27734H6.99609ZM27.5719 21.293C25.6031 21.293 24.0445 20.7695 22.8961 19.7227C21.7477 18.6758 21.1734 17.1172 21.1734 15.0469C21.1734 12.9219 21.7672 11.3359 22.9547 10.2891C24.15 9.23438 25.7437 8.70703 27.7359 8.70703C29.6578 8.70703 31.1969 9.22656 32.3531 10.2656C33.5094 11.2969 34.0875 12.8203 34.0875 14.8359C34.0875 16.9375 33.5094 18.5391 32.3531 19.6406C31.1969 20.7422 29.6031 21.293 27.5719 21.293ZM27.6891 18.457C28.5484 18.457 29.1969 18.1914 29.6344 17.6602C30.0719 17.1211 30.2906 16.2031 30.2906 14.9062C30.2906 13.6719 30.068 12.8047 29.6227 12.3047C29.1852 11.7969 28.5328 11.543 27.6656 11.543C26.8297 11.543 26.1695 11.8164 25.6852 12.3633C25.2086 12.9023 24.9703 13.7812 24.9703 15C24.9703 16.2734 25.1969 17.168 25.65 17.6836C26.1109 18.1992 26.7906 18.457 27.6891 18.457ZM44.7609 21.293C42.7922 21.293 41.2336 20.7695 40.0852 19.7227C38.9367 18.6758 38.3625 17.1172 38.3625 15.0469C38.3625 12.9219 38.9562 11.3359 40.1437 10.2891C41.3391 9.23438 42.9328 8.70703 44.925 8.70703C46.8469 8.70703 48.3859 9.22656 49.5422 10.2656C50.6984 11.2969 51.2766 12.8203 51.2766 14.8359C51.2766 16.9375 50.6984 18.5391 49.5422 19.6406C48.3859 20.7422 46.7922 21.293 44.7609 21.293ZM44.8781 18.457C45.7375 18.457 46.3859 18.1914 46.8234 17.6602C47.2609 17.1211 47.4797 16.2031 47.4797 14.9062C47.4797 13.6719 47.257 12.8047 46.8117 12.3047C46.3742 11.7969 45.7219 11.543 44.8547 11.543C44.0187 11.543 43.3586 11.8164 42.8742 12.3633C42.3977 12.9023 42.1594 13.7812 42.1594 15C42.1594 16.2734 42.3859 17.168 42.8391 17.6836C43.3 18.1992 43.9797 18.457 44.8781 18.457Z" fill="#468A99"/>
<path d="M57.7313 21.2461C57.5672 21.3164 57.45 21.3516 57.3797 21.3516C57.3094 21.3516 57.2352 21.3242 57.157 21.2695C56.9773 21.1445 56.7703 20.8398 56.5359 20.3555C56.3094 19.8633 56.1961 19.1094 56.1961 18.0938V4.52344C56.1961 4.33594 56.2352 4.19141 56.3133 4.08984C56.6414 3.66016 57.1219 3.19531 57.7547 2.69531C57.8641 2.61719 57.9617 2.57812 58.0477 2.57812C58.1492 2.57812 58.2469 2.61719 58.3406 2.69531C58.6766 2.95312 58.9578 3.19531 59.1844 3.42188C59.4188 3.64844 59.618 3.87109 59.782 4.08984C59.8602 4.19141 59.8992 4.33594 59.8992 4.52344V17.3789C59.8992 17.8945 59.9422 18.3359 60.0281 18.7031C60.1141 19.0625 60.2156 19.3516 60.3328 19.5703C60.4656 19.8281 60.4148 20.0117 60.1805 20.1211L57.7313 21.2461ZM71.393 21.293C70.0727 21.293 68.9242 21.082 67.9477 20.6602C66.9711 20.2305 66.2133 19.5664 65.6742 18.668C65.1352 17.7695 64.8656 16.6094 64.8656 15.1875C64.8656 13.0547 65.4125 11.4414 66.5062 10.3477C67.6 9.25391 69.0531 8.70703 70.8656 8.70703C72.0453 8.70703 73.0414 8.91797 73.8539 9.33984C74.6742 9.76172 75.2953 10.3438 75.7172 11.0859C76.1469 11.8281 76.3617 12.6758 76.3617 13.6289C76.3617 14.5586 76.1234 15.207 75.6469 15.5742C75.1703 15.9414 74.475 16.125 73.5609 16.125H68.5336C68.5961 16.9297 68.8891 17.543 69.4125 17.9648C69.9437 18.3867 70.6625 18.5977 71.5687 18.5977C72.2875 18.5977 72.8617 18.4922 73.2914 18.2812C73.7289 18.0625 74.0336 17.8906 74.2055 17.7656C74.3539 17.6562 74.5219 17.6055 74.7094 17.6133C74.8578 17.6133 75.0687 17.6445 75.3422 17.707C75.6234 17.7617 75.9008 17.8672 76.1742 18.0234C76.3695 18.125 76.4672 18.2656 76.4672 18.4453C76.4672 18.5469 76.4477 18.6914 76.4086 18.8789C76.3852 18.9883 76.3461 19.1484 76.2914 19.3594C76.2367 19.5625 76.1664 19.7539 76.0805 19.9336C76.0336 20.0195 75.9594 20.1016 75.8578 20.1797C75.7016 20.2891 75.4477 20.4336 75.0961 20.6133C74.7523 20.793 74.2797 20.9492 73.6781 21.082C73.0766 21.2227 72.3148 21.293 71.393 21.293ZM68.5102 13.7227H72.3305C72.7289 13.7227 72.9281 13.5391 72.9281 13.1719C72.9281 12.6172 72.7523 12.1523 72.4008 11.7773C72.057 11.3945 71.5375 11.2031 70.8422 11.2031C70.0844 11.2031 69.5258 11.4453 69.1664 11.9297C68.8148 12.4141 68.5961 13.0117 68.5102 13.7227ZM87.2227 21.293C85.9023 21.293 84.7539 21.082 83.7773 20.6602C82.8008 20.2305 82.043 19.5664 81.5039 18.668C80.9648 17.7695 80.6953 16.6094 80.6953 15.1875C80.6953 13.0547 81.2422 11.4414 82.3359 10.3477C83.4297 9.25391 84.8828 8.70703 86.6953 8.70703C87.875 8.70703 88.8711 8.91797 89.6836 9.33984C90.5039 9.76172 91.125 10.3438 91.5469 11.0859C91.9766 11.8281 92.1914 12.6758 92.1914 13.6289C92.1914 14.5586 91.9531 15.207 91.4766 15.5742C91 15.9414 90.3047 16.125 89.3906 16.125H84.3633C84.4258 16.9297 84.7188 17.543 85.2422 17.9648C85.7734 18.3867 86.4922 18.5977 87.3984 18.5977C88.1172 18.5977 88.6914 18.4922 89.1211 18.2812C89.5586 18.0625 89.8633 17.8906 90.0352 17.7656C90.1836 17.6562 90.3516 17.6055 90.5391 17.6133C90.6875 17.6133 90.8984 17.6445 91.1719 17.707C91.4531 17.7617 91.7305 17.8672 92.0039 18.0234C92.1992 18.125 92.2969 18.2656 92.2969 18.4453C92.2969 18.5469 92.2773 18.6914 92.2383 18.8789C92.2148 18.9883 92.1758 19.1484 92.1211 19.3594C92.0664 19.5625 91.9961 19.7539 91.9102 19.9336C91.8633 20.0195 91.7891 20.1016 91.6875 20.1797C91.5312 20.2891 91.2773 20.4336 90.9258 20.6133C90.582 20.793 90.1094 20.9492 89.5078 21.082C88.9062 21.2227 88.1445 21.293 87.2227 21.293ZM84.3398 13.7227H88.1602C88.5586 13.7227 88.7578 13.5391 88.7578 13.1719C88.7578 12.6172 88.582 12.1523 88.2305 11.7773C87.8867 11.3945 87.3672 11.2031 86.6719 11.2031C85.9141 11.2031 85.3555 11.4453 84.9961 11.9297C84.6445 12.4141 84.4258 13.0117 84.3398 13.7227Z" fill="#E49B6E"/>
</svg>
