<svg width="32" height="32" viewBox="0 0 32 32" fill="none" xmlns="http://www.w3.org/2000/svg">
<path d="M4 12.012C4 9.88672 4.84426 7.8485 6.34705 6.34571C7.84984 4.84292 9.88807 3.99866 12.0133 3.99866H16C18.1188 3.99863 20.1514 4.83777 21.6531 6.33249C23.1548 7.82722 24.0035 9.85586 24.0133 11.9747H25.2707C26.804 11.9747 28 13.1693 28 14.704V19.9867C28 22.1119 27.1557 24.1501 25.653 25.6529C24.1502 27.1557 22.1119 28 19.9867 28H12.0133C10.961 28 9.91899 27.7927 8.94676 27.39C7.97454 26.9873 7.09116 26.397 6.34705 25.6529C4.84426 24.1501 4 22.1119 4 19.9867V12.012ZM12.0133 6.66532C11.3111 6.66532 10.6157 6.80366 9.96694 7.07244C9.31817 7.34122 8.7287 7.73517 8.2322 8.2318C7.7357 8.72842 7.34189 9.31799 7.07327 9.96683C6.80466 10.6157 6.66649 11.3111 6.66667 12.0133V19.988C6.66702 21.4058 7.23048 22.7654 8.23314 23.7678C9.2358 24.7702 10.5955 25.3333 12.0133 25.3333H19.9867C21.4047 25.3333 22.7646 24.77 23.7673 23.7673C24.77 22.7646 25.3333 21.4047 25.3333 19.9867V14.6667H24C22.5653 14.6667 21.3333 13.4347 21.3333 12C21.3333 9.04799 18.952 6.66666 16 6.66666L12.0133 6.66532ZM10.6667 12C10.6667 11.6464 10.8071 11.3072 11.0572 11.0572C11.3072 10.8071 11.6464 10.6667 12 10.6667H16.6667C17.0203 10.6667 17.3594 10.8071 17.6095 11.0572C17.8595 11.3072 18 11.6464 18 12C18 12.3536 17.8595 12.6928 17.6095 12.9428C17.3594 13.1928 17.0203 13.3333 16.6667 13.3333H12C11.6464 13.3333 11.3072 13.1928 11.0572 12.9428C10.8071 12.6928 10.6667 12.3536 10.6667 12ZM12 18.6667C11.6464 18.6667 11.3072 18.8071 11.0572 19.0572C10.8071 19.3072 10.6667 19.6464 10.6667 20C10.6667 20.3536 10.8071 20.6928 11.0572 20.9428C11.3072 21.1928 11.6464 21.3333 12 21.3333H20C20.3536 21.3333 20.6928 21.1928 20.9428 20.9428C21.1929 20.6928 21.3333 20.3536 21.3333 20C21.3333 19.6464 21.1929 19.3072 20.9428 19.0572C20.6928 18.8071 20.3536 18.6667 20 18.6667H12Z" fill="#333333"/>
</svg>
